<?xml version="1.0" encoding="UTF-8"?>
<svg xmlns="http://www.w3.org/2000/svg" xmlns:xlink="http://www.w3.org/1999/xlink" width="3888" height="1248" viewBox="0 0 3888 1248">
<path fill-rule="nonzero" fill="rgb(99.609375%, 99.609375%, 99.609375%)" fill-opacity="1" d="M 0 0 L 0 1248 C 1296 1248 2592 1248 3888 1248 C 3888 832 3888 416 3888 0 L 0 0 "/>
<path fill-rule="nonzero" fill="rgb(0%, 0%, 0%)" fill-opacity="1" d="M 118.753906 624.691406 L 118.753906 624.695312 L 66.582031 609.976562 C 108.59375 541.460938 164.914062 442.8125 240.734375 442.785156 C 265.960938 442.773438 289.8125 453.363281 312.066406 472.433594 L 312.066406 472.429688 C 344.003906 499.796875 377.160156 549.011719 408.394531 594.972656 C 444.488281 648.078125 479.242188 698.820312 513.171875 727.886719 C 531.699219 743.765625 545.953125 749.5625 556.628906 749.558594 C 559.089844 749.558594 561.519531 749.257812 563.984375 748.621094 C 595.75 740.421875 633.640625 685.335938 682.210938 609.933594 C 723.929688 545.164062 776.261719 460.214844 836.558594 444.652344 C 843.25 442.921875 850.199219 441.957031 857.339844 441.957031 C 859.296875 441.957031 861.257812 442.027344 863.222656 442.171875 L 863.226562 442.171875 C 929.035156 447.050781 987.839844 539.238281 1033.039062 606.046875 C 1089.398438 689.335938 1132.371094 747.617188 1166.558594 750.152344 C 1167.210938 750.203125 1167.859375 750.226562 1168.488281 750.226562 L 1168.53125 750.226562 C 1168.640625 750.226562 1168.789062 750.222656 1169 750.21875 L 1168.960938 750.222656 C 1201.941406 749.574219 1243.699219 692.917969 1300.339844 607.953125 C 1345.78125 539.789062 1406.148438 443.222656 1475.828125 441.859375 C 1476.339844 441.847656 1476.851562 441.84375 1477.359375 441.84375 L 1477.371094 441.84375 C 1477.441406 441.84375 1477.601562 441.84375 1477.75 441.84375 L 1477.769531 441.84375 C 1548.03125 442.175781 1609.140625 539.8125 1654.851562 608.25 C 1711.878906 693.621094 1753.519531 749.8125 1785.820312 749.964844 C 1785.859375 749.964844 1785.890625 749.964844 1785.941406 749.964844 L 1785.980469 749.964844 L 1785.839844 749.964844 C 1786.039062 749.964844 1786.289062 749.964844 1786.570312 749.96875 L 1785.96875 749.964844 C 1818.191406 749.917969 1859.730469 693.800781 1916.71875 608.253906 C 1962.398438 539.691406 2023.550781 441.683594 2094.089844 441.59375 L 2094.128906 441.59375 C 2094.179688 441.59375 2094 441.59375 2093.789062 441.59375 C 2093.910156 441.59375 2094.039062 441.59375 2094.160156 441.59375 C 2164.738281 441.566406 2225.980469 539.546875 2271.730469 608.074219 C 2328.71875 693.445312 2370.308594 749.582031 2402.609375 749.714844 L 2402.570312 749.714844 C 2402.621094 749.714844 2402.71875 749.714844 2402.730469 749.714844 L 2402.71875 749.714844 C 2435.148438 749.699219 2476.949219 693.339844 2534.171875 607.683594 C 2579.769531 539.414062 2640.460938 442.558594 2710.128906 441.347656 L 2710.121094 441.347656 C 2710.550781 441.339844 2711.019531 441.332031 2711.488281 441.332031 L 2711.480469 441.332031 C 2782.550781 441.304688 2843.980469 540.238281 2889.730469 609.242188 C 2944.648438 692.054688 2985.378906 748.023438 3017.289062 750.3125 L 3017.28125 750.3125 C 3017.859375 750.351562 3018.441406 750.375 3019.019531 750.375 C 3052.449219 750.359375 3095.101562 692.492188 3152.628906 606.027344 C 3195.191406 542.050781 3247.828125 459.417969 3306.140625 444.316406 C 3313.238281 442.472656 3320.390625 441.582031 3327.519531 441.578125 C 3404.429688 441.546875 3470.179688 548.875 3517.078125 620.871094 C 3549.261719 670.257812 3576.789062 712.042969 3601.28125 733.441406 C 3615.859375 746.1875 3627.140625 749.496094 3635.75 749.492188 C 3673.039062 749.476562 3713.800781 693.175781 3769.148438 608.296875 C 3777.648438 595.269531 3795.101562 591.59375 3808.128906 600.089844 C 3821.148438 608.585938 3824.820312 626.035156 3816.328125 639.0625 C 3771.28125 708.132812 3711.628906 805.785156 3635.769531 805.816406 C 3610.308594 805.824219 3586.359375 795.199219 3564.21875 775.855469 C 3532.421875 748.066406 3500.128906 698.023438 3469.890625 651.613281 C 3411.949219 562.679688 3365.570312 497.882812 3327.539062 497.898438 C 3325.140625 497.902344 3322.730469 498.195312 3320.261719 498.835938 C 3288.441406 507.078125 3249.480469 562.128906 3199.519531 637.226562 C 3153.25 706.777344 3090.941406 806.667969 3019.039062 806.695312 C 3017.121094 806.695312 3015.191406 806.628906 3013.261719 806.488281 C 2946.140625 801.675781 2887.539062 707.847656 2842.789062 640.367188 C 2785.730469 554.304688 2743.980469 497.640625 2711.5 497.65625 L 2711.488281 497.65625 C 2711.390625 497.65625 2711.261719 497.65625 2711.109375 497.660156 C 2679.050781 498.21875 2637.640625 554.179688 2581 638.96875 C 2535.070312 707.71875 2473.558594 806.007812 2402.738281 806.035156 L 2402.730469 806.035156 C 2402.628906 806.035156 2402.480469 806.035156 2402.429688 806.035156 L 2402.378906 806.035156 C 2331.839844 805.75 2270.640625 707.894531 2224.878906 639.34375 C 2167.820312 553.859375 2126.308594 497.902344 2094.179688 497.914062 L 2094.558594 497.914062 C 2094.320312 497.914062 2094.109375 497.914062 2094.128906 497.914062 L 2094.160156 497.914062 C 2062.039062 497.957031 2020.558594 553.972656 1963.589844 639.484375 C 1917.878906 708.097656 1856.671875 806.183594 1786.050781 806.285156 C 1785.851562 806.285156 1785.640625 806.285156 1785.441406 806.28125 C 1785.71875 806.285156 1785.941406 806.285156 1786.121094 806.285156 L 1785.949219 806.285156 L 1785.96875 806.285156 C 1785.820312 806.285156 1785.710938 806.285156 1785.558594 806.285156 C 1715.070312 805.953125 1653.808594 708.097656 1608.019531 639.535156 C 1551.058594 554.265625 1509.570312 498.316406 1477.5 498.164062 L 1477.519531 498.164062 C 1477.511719 498.164062 1477.460938 498.164062 1477.371094 498.164062 L 1477.378906 498.164062 C 1477.230469 498.164062 1477.089844 498.167969 1476.941406 498.167969 L 1476.929688 498.167969 C 1444.789062 498.796875 1403.609375 554.589844 1347.199219 639.191406 C 1301.460938 707.8125 1240.558594 805.152344 1170.070312 806.53125 L 1170.039062 806.53125 C 1169.558594 806.542969 1169.039062 806.546875 1168.46875 806.546875 L 1168.511719 806.546875 C 1166.460938 806.546875 1164.421875 806.472656 1162.398438 806.320312 C 1093.558594 801.21875 1032.761719 706.128906 986.394531 637.609375 C 930.964844 555.683594 890.152344 500.644531 859.0625 498.339844 L 859.066406 498.339844 C 858.5 498.296875 857.933594 498.277344 857.363281 498.277344 C 855.3125 498.277344 853.089844 498.550781 850.632812 499.183594 C 817.410156 507.761719 778.550781 564.378906 729.558594 640.433594 C 688.355469 704.402344 636.933594 787.960938 578.0625 803.15625 L 578.058594 803.15625 C 570.949219 804.992188 563.792969 805.878906 556.648438 805.878906 L 556.652344 805.878906 C 526.164062 805.894531 499.082031 789.984375 476.527344 770.660156 C 435.601562 735.597656 396.332031 677.417969 361.8125 626.628906 C 328.65625 577.839844 300.253906 536.476562 275.421875 515.203125 C 260.445312 502.371094 249.117188 499.101562 240.757812 499.105469 C 204.777344 499.121094 166.847656 554.199219 114.597656 639.414062 C 108.007812 650.164062 95.078125 655.222656 82.945312 651.796875 C 70.808594 648.375 62.429688 637.300781 62.429688 624.695312 L 62.429688 624.691406 C 62.429688 609.140625 75.039062 596.53125 90.589844 596.53125 C 106.144531 596.53125 118.753906 609.140625 118.753906 624.691406 Z M 118.753906 624.691406 "/>
</svg>
